<?xml version="1.0" standalone="no"?>
<!DOCTYPE svg PUBLIC "-//W3C//DTD SVG 20010904//EN"
 "http://www.w3.org/TR/2001/REC-SVG-20010904/DTD/svg10.dtd">
<svg version="1.0" xmlns="http://www.w3.org/2000/svg"
 width="468.000000pt" height="468.000000pt" viewBox="0 0 468.000000 468.000000"
 preserveAspectRatio="xMidYMid meet">
<metadata>
Created by potrace 1.14, written by Peter Selinger 2001-2017
</metadata>
<g transform="translate(0.000000,468.000000) scale(0.100000,-0.100000)"
fill="#000000" stroke="none">
<path d="M694 4233 c-23 -8 -58 -30 -78 -49 -69 -67 -70 -69 -74 -376 l-4
-278 482 0 482 0 -4 278 c-4 305 -6 313 -72 374 -68 64 -63 63 -391 64 -234 1
-309 -2 -341 -13z"/>
<path d="M1939 4239 c-25 -4 -59 -14 -76 -22 -40 -21 -91 -81 -99 -115 -3 -15
-8 -33 -10 -40 -2 -7 -7 -130 -10 -273 l-6 -259 458 -2 457 -3 24 -77 c13 -43
28 -78 34 -78 15 0 732 191 892 237 24 7 22 19 -23 188 -84 310 -107 365 -177
412 -88 60 -127 56 -533 -59 -80 -22 -152 -44 -162 -49 -13 -7 -24 2 -52 40
-19 27 -57 62 -83 78 l-48 28 -270 1 c-148 0 -291 -3 -316 -7z"/>
<path d="M3250 3264 c-234 -63 -437 -117 -452 -120 -16 -4 -28 -13 -28 -21 0
-21 156 -621 189 -728 5 -16 33 -118 62 -225 96 -361 238 -872 243 -878 10 -9
890 220 908 237 7 6 -43 210 -156 641 -25 96 -51 191 -56 210 -5 19 -27 100
-49 180 -151 566 -217 799 -229 812 -4 3 -198 -45 -432 -108z"/>
<path d="M540 2330 l0 -960 480 0 480 0 0 960 0 960 -480 0 -480 0 0 -960z"/>
<path d="M1740 2330 l0 -960 480 0 480 0 0 960 0 960 -480 0 -480 0 0 -960z"/>
<path d="M3905 1205 c-562 -153 -575 -156 -575 -174 0 -9 11 -56 24 -106 13
-49 38 -144 56 -210 17 -66 40 -139 50 -161 34 -79 114 -134 199 -139 61 -4
519 113 591 151 35 18 73 56 100 99 43 69 34 141 -57 463 -35 125 -49 162 -62
161 -9 0 -155 -38 -326 -84z"/>
<path d="M1735 908 c9 -343 12 -354 79 -416 66 -61 84 -64 394 -65 307 -1 339
3 399 56 69 60 73 84 80 392 l5 275 -482 0 -482 0 7 -242z"/>
<path d="M542 863 c5 -290 8 -305 61 -361 38 -40 69 -57 119 -66 44 -8 551 -8
593 -1 63 12 137 83 153 148 15 55 21 132 28 360 l6 187 -482 0 -482 0 4 -267z"/>
</g>
</svg>
